<svg xmlns="http://www.w3.org/2000/svg" xmlns:xlink="http://www.w3.org/1999/xlink" version="1.1" id="Layer_1" x="0px" y="0px" viewBox="0 0 54.9 53.5" enable-background="new 0 0 54.9 53.5" xml:space="preserve">
<g>
	<path d="M54.9 27.4c0 6-1.7 11.4-5.2 16.1c-3.5 4.8-8 8.1-13.5 9.9c-0.6 0.1-1.1 0-1.4-0.2c-0.3-0.3-0.4-0.6-0.4-1.1v-7.5 c0-2.3-0.6-4-1.9-5.1c1.4-0.1 2.6-0.4 3.7-0.6s2.2-0.8 3.4-1.4c1.2-0.6 2.1-1.4 2.9-2.4s1.4-2.2 1.9-3.8s0.7-3.4 0.7-5.4 c0-2.9-0.9-5.3-2.8-7.4c0.9-2.2 0.8-4.6-0.3-7.3c-0.7-0.2-1.6-0.1-2.9 0.4c-1.3 0.5-2.4 1-3.3 1.6l-1.4 0.9 c-2.2-0.6-4.5-0.9-6.9-0.9c-2.4 0-4.6 0.3-6.9 0.9c-0.4-0.3-0.9-0.6-1.5-1s-1.6-0.8-3-1.4s-2.4-0.7-3.1-0.5c-1 2.7-1.1 5.1-0.2 7.3 c-1.9 2-2.8 4.5-2.8 7.4c0 2 0.2 3.8 0.7 5.4c0.5 1.5 1.1 2.8 1.9 3.8c0.8 1 1.7 1.8 2.9 2.4c1.2 0.6 2.3 1.1 3.4 1.4 c1.1 0.3 2.3 0.5 3.7 0.6c-1 0.9-1.5 2.1-1.8 3.7c-0.5 0.2-1 0.4-1.6 0.5c-0.6 0.1-1.2 0.2-2 0.2s-1.6-0.3-2.3-0.8 c-0.8-0.5-1.4-1.3-2-2.2c-0.5-0.8-1-1.4-1.7-1.9s-1.3-0.8-1.8-0.9l-0.7-0.1c-0.5 0-0.8 0.1-1 0.2c-0.2 0.1-0.2 0.2-0.2 0.4 c0.1 0.2 0.2 0.3 0.3 0.5c0.1 0.2 0.3 0.3 0.5 0.4l0.2 0.2c0.5 0.2 1 0.7 1.6 1.4c0.5 0.7 0.9 1.3 1.1 1.8l0.4 0.8 c0.3 0.9 0.8 1.6 1.6 2.2c0.7 0.6 1.5 0.9 2.4 1.1c0.9 0.2 1.7 0.2 2.5 0.2s1.5 0 2-0.1l0.8-0.1c0 0.9 0 2 0 3.2c0 1.2 0 1.9 0 1.9 c0 0.4-0.2 0.8-0.5 1.1c-0.3 0.3-0.8 0.4-1.4 0.2c-5.5-1.8-10-5.1-13.5-9.9C1.7 38.8 0 33.4 0 27.4c0-5 1.2-9.6 3.7-13.8 c2.5-4.2 5.8-7.5 10-10C17.9 1.2 22.5 0 27.4 0c5 0 9.6 1.2 13.8 3.7c4.2 2.5 7.5 5.8 10 10C53.6 17.9 54.9 22.5 54.9 27.4z"/>
</g>
</svg>
