<svg xmlns="http://www.w3.org/2000/svg" viewBox="0 0 59.4 59.4" enable-background="new 0 0 59.4 59.4"><path d="M26.6 28.4c0 .9.4 1.7 1.1 2.5s1.7 1.6 2.8 2.4 2.2 1.7 3.2 2.6c1.1 1 2 2.2 2.8 3.7.8 1.5 1.1 3.2 1.1 5.1 0 2.1-.6 4.2-1.7 6.2-1.7 2.9-4.2 5-7.5 6.4-3.3 1.4-6.9 2.1-10.6 2.1-3.1 0-6.1-.5-8.8-1.5-2.7-1-4.8-2.6-6.1-4.9-.9-1.4-1.3-3-1.3-4.7 0-1.9.5-3.7 1.6-5.4 1.1-1.6 2.5-3 4.2-4.1 3.1-2 7.9-3.1 14.4-3.6-.8-1-1.3-1.9-1.7-2.6-.4-.8-.6-1.6-.6-2.6 0-.9.2-1.9.8-3-1.1.1-1.9.1-2.4.1-3.5 0-6.5-1.1-8.9-3.4-2.4-2.3-3.6-5.2-3.6-8.7 0-2 .4-3.8 1.3-5.7.9-1.8 2-3.4 3.5-4.7 1.8-1.6 4-2.7 6.5-3.5 2.4-.7 5-1.1 7.7-1.1h14.9l-4.9 3.1h-4.7c1.8 1.5 3.1 3.1 4 4.8.9 1.7 1.4 3.6 1.4 5.7 0 1.7-.3 3.3-.9 4.6-.6 1.4-1.3 2.5-2.1 3.3-.8.8-1.7 1.6-2.5 2.3-.8.7-1.5 1.4-2.1 2.2-.6.8-.9 1.6-.9 2.4zm-5.2 27.8c1.4 0 2.7-.2 4-.5 1.3-.3 2.5-.8 3.5-1.4 1.1-.6 2-1.5 2.6-2.6.7-1.1 1-2.4 1-3.9 0-.6-.1-1.2-.2-1.8-.2-.6-.3-1.1-.5-1.5-.2-.4-.5-.9-1-1.5s-.8-1-1.1-1.2c-.2-.3-.7-.7-1.4-1.2s-1.1-.9-1.3-1c-.2-.1-.7-.5-1.5-1.1-.8-.6-1.2-.9-1.3-.9-.4 0-1-.1-1.7-.1-1.3 0-2.5.1-3.8.2-1.2.2-2.5.5-3.8.9s-2.5 1-3.5 1.6c-1 .7-1.8 1.6-2.4 2.7-.6 1.1-1 2.4-1 3.8 0 1.7.4 3.1 1.2 4.4.8 1.3 1.9 2.3 3.3 3 1.3.7 2.8 1.2 4.2 1.6 1.7.3 3.2.5 4.7.5zm0-31.2c.9 0 1.8-.2 2.8-.6 1-.4 1.7-.9 2.4-1.6 1.3-1.4 1.9-3.2 1.9-5.7 0-1.4-.2-2.9-.6-4.5-.4-1.6-1-3.1-1.7-4.6-.8-1.5-1.8-2.7-3-3.7-1.3-1-2.7-1.5-4.2-1.5-1 0-2 .2-2.9.7-1 .5-1.7 1.1-2.3 1.9-1.1 1.4-1.7 3.3-1.7 5.7 0 1.1.1 2.3.4 3.5.2 1.2.6 2.5 1.1 3.7.5 1.2 1.1 2.3 1.9 3.3.7 1 1.6 1.8 2.7 2.4.8.7 1.9 1 3.2 1zm29-.1H58v3.9h-7.6v7.8h-3.8v-7.8H39v-3.9h7.6v-7.8h3.8v7.8z"/></svg>