<svg xmlns="http://www.w3.org/2000/svg" viewBox="0 0 54.9 54.9" enable-background="new 0 0 54.9 54.9"><path d="M13.2 7.3c0 1.7-.6 3.2-1.8 4.4-1.2 1.2-2.8 1.8-4.8 1.8h-.1c-2 0-3.5-.6-4.7-1.8C.6 10.5 0 9.1 0 7.3c0-1.8.6-3.2 1.8-4.4C3 1.7 4.6 1.2 6.6 1.2s3.6.6 4.8 1.7c1.2 1.2 1.8 2.7 1.8 4.4zm-.7 11v35.4H.7V18.3h11.8zm42.4 15.1v20.3H43.1v-19c0-2.5-.5-4.5-1.4-5.9s-2.5-2.1-4.5-2.1c-1.5 0-2.8.4-3.8 1.2-1 .8-1.8 1.8-2.3 3.1-.3.7-.4 1.7-.4 2.9v19.8H19c0-9.5.1-17.2.1-23.1V18.3h11.7v5.1h-.1c.5-.8 1-1.4 1.5-2 .5-.6 1.2-1.2 2-1.9s1.9-1.2 3.1-1.6c1.2-.4 2.6-.6 4.1-.6 4.1 0 7.3 1.4 9.8 4.1 2.4 2.8 3.7 6.7 3.7 12z"/></svg>