<svg width="868" height="330" viewBox="0 0 868 330" xmlns="http://www.w3.org/2000/svg"><title>logo 2</title><g stroke="#000" fill="none" fill-rule="evenodd"><path d="M395 243c4.1.5 12.9 1.6 17.2 1.6 55.1 0 96-34.5 111.8-79.6-13.6-11.5-22.7-20-39-25-5.6 32-36.7 57-72 57-7.9 0-15.3-1.2-22.5-3.4" stroke-width="17.01"/><path d="M343.9 166.5c-14.6-12.4-27.9-26.7-41-38.8-.8-.7-.8-1.9-.1-2.7 29.9-30.7 65.9-68.4 110.4-68.4 24.9 0 45.6 12.1 57.2 31.4 21.7 2.5 41.3 11.3 59.3 23.3C523.4 51.1 478.8 9 416.5 9 353 9 311.2 52.5 271.2 92.5c-.7.7-1.9.7-2.7 0-37.7-37.8-81-83.5-139-83.5C59.8 9 9 63.7 9 126.4c0 68.2 47.6 117.3 114.1 117.3 63.5 0 105.3-43.4 145.3-83.5.7-.7 1.9-.7 2.7 0 20.3 20.3 42.2 42.9 67.1 59.5m-101.4-92c-29.9 30.7-65.9 68.4-110.4 68.4-38.8 0-67.4-29.3-67.4-69.8 0-37.3 30.1-69.8 69.8-69.8 45.3 0 77.5 40 108 68.4.7.9.7 2.1 0 2.8z" stroke-width="16.075"/><path d="M473 87.3c-4.1-.5-10.8 0-15.1 0-55.1 0-99.2 32.6-114.9 77.7 13 13 29 23 45.4 27.8 5.6-32 33.4-57.9 68.7-57.9 7.9 0 15.3 1.2 22.5 3.4" stroke-width="17.01"/><path d="M524.1 164.4c14.6 12.4 27.9 26.7 41 38.8.8.7.8 1.9.1 2.7-29.9 30.7-65.9 68.4-110.4 68.4-24.9 0-45.6-12.1-57.2-31.4-21.7-2.5-41.3-11.3-59.3-23.3 6.5 60.2 51.8 102.2 113.3 102.2 63.5 0 105.3-43.4 145.3-83.5.7-.7 1.9-.7 2.7 0 37.7 37.8 81 83.5 139 83.5 69.8 0 120.5-54.7 120.5-117.3 0-68.2-46.8-117.3-114.1-117.3-63.5 0-105.3 43.4-145.3 83.5-.7.7-1.9.7-2.7 0-20.3-20.3-42.2-42.9-67.1-59.5m209.4 163.2c-45.3 0-77.5-40-108-68.4-.8-.7-.8-1.9-.1-2.7 29.9-30.7 65.9-68.4 110.4-68.4 38.8 0 67.4 29.3 67.4 69.8.1 37.2-30 69.7-69.7 69.7z" stroke-width="16.075"/></g></svg>