<?xml version="1.0" encoding="utf-8"?>
<!-- Generator: Adobe Illustrator 18.0.0, SVG Export Plug-In . SVG Version: 6.00 Build 0)  -->
<!DOCTYPE svg PUBLIC "-//W3C//DTD SVG 1.1//EN" "http://www.w3.org/Graphics/SVG/1.1/DTD/svg11.dtd">
<svg version="1.1" id="Layer_1" xmlns="http://www.w3.org/2000/svg" xmlns:xlink="http://www.w3.org/1999/xlink" x="0px" y="0px"
	 viewBox="0 0 866.1 328.9" enable-background="new 0 0 866.1 328.9" xml:space="preserve">
<g>
	<path fill="none" stroke="#000000" stroke-width="17.0104" stroke-miterlimit="10" d="M396.6,241.9c4.1,0.5,8.3,0.7,12.6,0.7
		c55.1,0,98.2-34.1,114-79.2c-13.6-11.5-28.2-21.3-44.5-26.3c-5.6,32-33.4,57.9-68.7,57.9c-7.9,0-15.3-1.2-22.5-3.4"/>
	<path fill="none" stroke="#000000" stroke-width="16.0752" stroke-miterlimit="10" d="M342.9,165.5c-14.6-12.4-27.9-26.7-41-38.8
		c-0.8-0.7-0.8-1.9-0.1-2.7c29.9-30.7,65.9-68.4,110.4-68.4c24.9,0,45.6,12.1,57.2,31.4c21.7,2.5,41.3,11.3,59.3,23.3
		C522.4,50.1,477.8,8,415.5,8C352,8,310.2,51.5,270.2,91.5c-0.7,0.7-1.9,0.7-2.7,0C229.8,53.7,186.5,8,128.5,8
		C58.8,8,8,62.7,8,125.4c0,68.2,47.6,117.3,114.1,117.3c63.5,0,105.3-43.4,145.3-83.5c0.7-0.7,1.9-0.7,2.7,0
		c20.3,20.3,42.2,42.9,67.1,59.5 M235.8,126.7c-29.9,30.7-65.9,68.4-110.4,68.4c-38.8,0-67.4-29.3-67.4-69.8
		c0-37.3,30.1-69.8,69.8-69.8c45.3,0,77.5,40,108,68.4C236.5,124.8,236.5,126,235.8,126.7z"/>
	<path fill="none" stroke="#000000" stroke-width="17.0104" stroke-miterlimit="10" d="M469.5,87c-4.1-0.5-8.3-0.7-12.6-0.7
		c-55.1,0-98.3,34.1-114,79.2c13.6,11.5,28.2,21.3,44.5,26.3c5.6-32,33.4-57.9,68.7-57.9c7.9,0,15.3,1.2,22.5,3.4"/>
	<path fill="none" stroke="#000000" stroke-width="16.0752" stroke-miterlimit="10" d="M523.1,163.4c14.6,12.4,27.9,26.7,41,38.8
		c0.8,0.7,0.8,1.9,0.1,2.7c-29.9,30.7-65.9,68.4-110.4,68.4c-24.9,0-45.6-12.1-57.2-31.4c-21.7-2.5-41.3-11.3-59.3-23.3
		c6.5,60.2,51.8,102.2,113.3,102.2c63.5,0,105.3-43.4,145.3-83.5c0.7-0.7,1.9-0.7,2.7,0c37.7,37.8,81,83.5,139,83.5
		c69.8,0,120.5-54.7,120.5-117.3c0-68.2-46.8-117.3-114.1-117.3c-63.5,0-105.3,43.4-145.3,83.5c-0.7,0.7-1.9,0.7-2.7,0
		c-20.3-20.3-42.2-42.9-67.1-59.5 M738.3,273.4c-45.3,0-77.5-40-108-68.4c-0.8-0.7-0.8-1.9-0.1-2.7c29.9-30.7,65.9-68.4,110.4-68.4
		c38.8,0,67.4,29.3,67.4,69.8C808.1,240.9,778,273.4,738.3,273.4z"/>
</g>
</svg>
