<svg xmlns="http://www.w3.org/2000/svg" xmlns:xlink="http://www.w3.org/1999/xlink" version="1.1" id="Layer_1" x="0px" y="0px" viewBox="0 0 64 64" enable-background="new 0 0 64 64" xml:space="preserve">
  <g>
    <path d="M64 32c0 0.6-0.2 1.2-0.7 1.6l-9.1 9.1c-0.5 0.5-1 0.7-1.6 0.7s-1.2-0.2-1.6-0.7c-0.5-0.5-0.7-1-0.7-1.6v-4.6H36.6v13.7h4.6c0.6 0 1.2 0.2 1.6 0.7 0.5 0.5 0.7 1 0.7 1.6s-0.2 1.2-0.7 1.6l-9.1 9.1c-0.5 0.5-1 0.7-1.6 0.7s-1.2-0.2-1.6-0.7l-9.1-9.1c-0.5-0.5-0.7-1-0.7-1.6s0.2-1.2 0.7-1.6c0.5-0.5 1-0.7 1.6-0.7h4.6V36.6H13.7v4.6c0 0.6-0.2 1.2-0.7 1.6 -0.5 0.5-1 0.7-1.6 0.7s-1.2-0.2-1.6-0.7l-9.1-9.1C0.2 33.2 0 32.6 0 32s0.2-1.2 0.7-1.6l9.1-9.1c0.5-0.5 1-0.7 1.6-0.7s1.2 0.2 1.6 0.7c0.5 0.5 0.7 1 0.7 1.6v4.6h13.7V13.7h-4.6c-0.6 0-1.2-0.2-1.6-0.7 -0.5-0.5-0.7-1-0.7-1.6s0.2-1.2 0.7-1.6l9.1-9.1C30.8 0.2 31.4 0 32 0c0.6 0 1.2 0.2 1.6 0.7l9.1 9.1c0.5 0.5 0.7 1 0.7 1.6s-0.2 1.2-0.7 1.6c-0.5 0.5-1 0.7-1.6 0.7h-4.6v13.7h13.7v-4.6c0-0.6 0.2-1.2 0.7-1.6 0.5-0.5 1-0.7 1.6-0.7s1.2 0.2 1.6 0.7l9.1 9.1C63.8 30.8 64 31.4 64 32z"/>
  </g>
</svg>
