<svg xmlns="http://www.w3.org/2000/svg" viewBox="0 0 59.4 59.4" enable-background="new 0 0 59.4 59.4"><path d="M43.9 47.5l2.9 8.5c-.5.8-1.9 1.6-4 2.4-2.1.7-4.2 1.1-6.3 1.1-2.5 0-4.7-.3-6.8-.9-2.1-.7-3.8-1.5-5.1-2.6-1.3-1.1-2.5-2.4-3.4-3.8s-1.6-2.9-2-4.3c-.4-1.4-.6-2.8-.6-4.2V24.1h-6v-7.7c1.7-.6 3.2-1.4 4.6-2.5 1.4-1 2.4-2.1 3.2-3.2.8-1.1 1.5-2.3 2.1-3.6.6-1.3 1-2.5 1.2-3.5.2-1 .4-2.1.5-3.2 0-.1.1-.2.2-.3.2-.1.3-.1.4-.1h8.7v15.1h11.9v9h-12v18.5c0 .7.1 1.4.2 2 .2.6.4 1.2.8 1.9.4.6 1 1.1 1.8 1.5.8.4 1.8.5 2.9.5 1.9 0 3.5-.4 4.8-1z"/></svg>