<svg xmlns="http://www.w3.org/2000/svg" viewBox="0 0 56.3 56.3" enable-background="new 0 0 56.3 56.3"><path d="M56.3 10.7c-1.6 2.3-3.5 4.3-5.8 6v1.5c0 3.1-.5 6.2-1.4 9.3-.9 3.1-2.3 6-4.1 8.9-1.8 2.8-4 5.3-6.6 7.5-2.5 2.2-5.6 3.9-9.2 5.2-3.6 1.3-7.4 1.9-11.5 1.9-6.4 0-12.3-1.7-17.7-5.2.8.1 1.8.2 2.8.2 5.4 0 10.1-1.6 14.3-4.9-2.5 0-4.7-.8-6.7-2.3-2-1.5-3.3-3.4-4.1-5.7.8.1 1.5.2 2.2.2 1 0 2-.1 3-.4-2.7-.5-4.9-1.9-6.6-4-1.8-2.1-2.6-4.6-2.6-7.3v-.1c1.6.9 3.4 1.4 5.2 1.5-1.6-1-2.8-2.4-3.8-4.1-.9-1.7-1.4-3.5-1.4-5.5 0-2.1.5-4 1.6-5.8 2.9 3.5 6.4 6.4 10.5 8.5 4.1 2.1 8.6 3.3 13.3 3.6-.2-.9-.3-1.8-.3-2.6 0-3.2 1.1-5.9 3.4-8.2s5-3.4 8.2-3.4c3.3 0 6.1 1.2 8.4 3.6 2.6-.5 5-1.4 7.3-2.8-.9 2.7-2.6 4.9-5.1 6.4 2.3-.4 4.5-1 6.7-2z"/></svg>