<svg xmlns="http://www.w3.org/2000/svg" width="548.358" height="548.358" viewBox="0 0 548.358 548.358"><path d="M545.45 400.298c-.663-1.43-1.282-2.618-1.857-3.57-9.514-17.134-27.695-38.166-54.532-63.1l-.566-.572-.284-.28-.287-.287h-.288c-12.18-11.612-19.893-19.42-23.123-23.416-5.91-7.614-7.234-15.32-4.004-23.13 2.282-5.9 10.854-18.36 25.696-37.397 7.807-10.09 13.99-18.175 18.556-24.267 32.93-43.78 47.208-71.756 42.828-83.94l-1.7-2.846c-1.144-1.714-4.094-3.282-8.847-4.712-4.763-1.427-10.852-1.663-18.277-.712l-82.224.568c-1.333-.472-3.235-.428-5.713.144-2.475.572-3.713.86-3.713.86l-1.43.714-1.137.86c-.952.567-2 1.566-3.142 2.994-1.137 1.423-2.088 3.093-2.848 4.996-8.952 23.03-19.13 44.444-30.553 64.238-7.043 11.803-13.51 22.032-19.418 30.693-5.9 8.658-10.848 15.037-14.842 19.126-4 4.093-7.61 7.372-10.852 9.85-3.237 2.477-5.708 3.524-7.42 3.14-1.714-.382-3.33-.762-4.858-1.142-2.663-1.713-4.805-4.044-6.42-6.994-1.622-2.95-2.714-6.663-3.285-11.136-.57-4.476-.905-8.326-1-11.563-.09-3.233-.05-7.806.144-13.706.198-5.902.287-9.896.287-11.99 0-7.234.142-15.085.425-23.555.288-8.47.52-15.18.716-20.125.195-4.95.285-10.185.285-15.705s-.336-9.85-1-12.99c-.656-3.14-1.663-6.185-2.99-9.138-1.335-2.95-3.29-5.232-5.853-6.852-2.57-1.618-5.763-2.902-9.564-3.856-10.09-2.284-22.936-3.52-38.547-3.71-35.4-.38-58.147 1.905-68.235 6.854-3.997 2.09-7.614 4.948-10.848 8.562-3.427 4.19-3.905 6.475-1.43 6.85 11.42 1.712 19.507 5.805 24.266 12.276l1.715 3.43c1.334 2.473 2.666 6.853 4 13.133 1.33 6.28 2.19 13.227 2.567 20.837.95 13.897.95 25.793 0 35.69-.953 9.9-1.853 17.606-2.712 23.126-.86 5.52-2.143 9.993-3.855 13.418-1.715 3.426-2.856 5.52-3.428 6.28-.57.76-1.047 1.24-1.425 1.427-2.474.948-5.047 1.43-7.71 1.43-2.667 0-5.9-1.333-9.707-4-3.805-2.665-7.754-6.327-11.847-10.99-4.092-4.666-8.708-11.185-13.85-19.56-5.136-8.373-10.466-18.27-15.986-29.69l-4.567-8.282c-2.855-5.327-6.755-13.085-11.704-23.266-4.952-10.185-9.33-20.037-13.134-29.554-1.522-3.997-3.807-7.04-6.852-9.134l-1.43-.86c-.95-.76-2.474-1.566-4.566-2.426-2.095-.86-4.28-1.475-6.567-1.854l-78.23.568c-7.993 0-13.417 1.81-16.273 5.428l-1.143 1.71c-.572.954-.86 2.476-.86 4.57 0 2.095.57 4.665 1.714 7.708 11.42 26.84 23.84 52.725 37.257 77.66 13.42 24.933 25.08 45.018 34.974 60.236 9.897 15.23 19.985 29.602 30.264 43.112 10.28 13.515 17.083 22.176 20.412 25.98 3.333 3.813 5.95 6.663 7.854 8.566l7.14 6.85c4.567 4.57 11.275 10.042 20.126 16.417 8.853 6.38 18.654 12.66 29.408 18.85 10.756 6.182 23.27 11.226 37.546 15.127 14.275 3.905 28.17 5.472 41.684 4.716h32.834c6.66-.575 11.704-2.67 15.133-6.283l1.136-1.43c.765-1.137 1.48-2.902 2.14-5.277.668-2.38 1-5 1-7.85-.195-8.184.428-15.56 1.852-22.125 1.423-6.564 3.045-11.513 4.86-14.846 1.812-3.33 3.858-6.14 6.135-8.418 2.282-2.283 3.908-3.666 4.862-4.142.947-.48 1.704-.804 2.275-1 4.568-1.52 9.944-.047 16.136 4.43 6.188 4.473 11.99 9.996 17.42 16.56 5.424 6.57 11.942 13.94 19.554 22.124 7.617 8.186 14.277 14.27 19.985 18.274l5.707 3.426c3.812 2.286 8.76 4.38 14.853 6.283 6.08 1.9 11.41 2.377 15.984 1.426l73.087-1.14c7.23 0 12.855-1.197 16.845-3.572 3.998-2.38 6.373-5 7.14-7.85.763-2.855.804-6.093.144-9.713-.678-3.61-1.345-6.135-2.01-7.562z"/></svg>